<svg id="Capa_1" data-name="Capa 1" xmlns="http://www.w3.org/2000/svg" width="842.5404" height="149.015" viewBox="0 0 842.5404 149.015"><defs><style>.cls-1{fill:#0344fd;}.cls-2{fill:#9ea1ae;}</style></defs><path class="cls-1" d="M341.1818,119.386a6.5566,6.5566,0,0,0-6.3794,3.8816,4.3848,4.3848,0,0,1-3.3888,1.5763c-5.2306-.0694-10.4589-.4-15.6854-.6852-14.6992-.802-29.395-1.6706-44.0981-2.3943-1.9867-.0978-2.7857-.9764-3.5223-2.6283-3.1015-6.9541-6.4229-13.8113-9.4634-20.7912-.88-2.02-1.7839-2.3308-3.9132-1.9451-23.8714,4.323-47.7824,8.4281-71.6567,12.7352C161.6351,113.0029,70.51,129.7391,25.416,138.0222a1.4338,1.4338,0,0,0,.3584,2.8409c42.4107-3.0884,127.6708-9.4649,178.2609-13.3654a1.4227,1.4227,0,0,1,1.4907,1.77c-2.7762,10.7639-2.3394,20.8491,3.9243,30.4661a1.4331,1.4331,0,0,1-1.06,2.2077c-12.5487,1.2409-24.8138,2.4536-37.0789,3.6663a21.4277,21.4277,0,0,0,5.1441.4177c17.2386-.0031,34.4783-.1175,51.7151.0542,5.5956.0558,9.5954-2.2747,12.76-6.5622,7.3431-9.9491,7.277-27.9983-.1669-37.9154-2.5751-3.4309-5.7708-6.13-10.2668-6.1932-5.3188-.0743-10.6432.2537-15.713.4,1.4773-.6472,3.351-1.9413,5.3741-2.2474a100.8459,100.8459,0,0,1,10.0785-.4934A12.8773,12.8773,0,0,1,242.1,118.7c2.23,3.2861,4.2054,6.343,8.6447,5.43a1.4253,1.4253,0,0,1,1.68,1.4245c-.0063.9481-.01,1.7439.0138,2.5389.24,7.9539.3074,15.919.7986,23.8577.4808,7.77,3.5547,10.7535,11.4476,10.75,12.2117-.0057,24.4274-.3323,36.6318-.7824,2.1793-.08,3.3658.5839,4.15,1.8922a1.4441,1.4441,0,0,1-1.1036,2.1668l-.2716.0269a1.4341,1.4341,0,0,0,.1405,2.8608c4.7594.0308,9.5153.0585,14.2706.13a12.3744,12.3744,0,0,0,11.6373-6.3793,4.95,4.95,0,0,1,3.2808-1.8044c2.6132-.3278,5.26-.39,7.8-.4955a1.4311,1.4311,0,0,0,1.3663-1.4345V120.8284A1.4432,1.4432,0,0,0,341.1818,119.386Zm-116.0605,5.6168c4.881.7158,7.4255,4.2821,8.787,8.4731a22.4042,22.4042,0,0,1-.3322,15.3221c-1.7433,4.5189-3.9835,6.7064-8.0229,7.2629a1.4358,1.4358,0,0,1-1.2523-2.4133c3.4-3.5714,4.51-8.1053,4.4892-12.9844-.0212-4.9765-1.1326-9.605-4.8332-13.2139A1.4284,1.4284,0,0,1,225.1213,125.0028Zm58.7174,28.4385a1.4239,1.4239,0,0,1-1.51,1.4281c-6.4428-.4419-12.8505,1.4429-19.0069-2.03-2.1907-1.2356-3.5385-2.4653-3.6285-4.5924a1.4491,1.4491,0,0,1,2.1356-1.3274c6.46,3.3377,13.6262,1.6984,20.6912,2.1491a1.4285,1.4285,0,0,1,1.3189,1.4337Zm.0437-13.5374a1.4239,1.4239,0,0,1-1.4947,1.4293c-6.49-.3777-12.9682,1.5472-19.2156-1.99-2.12-1.2005-3.4336-2.39-3.4766-4.5156a1.45,1.45,0,0,1,2.1417-1.3c6.4066,3.3649,13.52,1.9961,20.6838,2.2812a1.4342,1.4342,0,0,1,1.3614,1.4388Zm51.6284,10.9906a1.4342,1.4342,0,0,1-1.4342,1.4342H322.9651a1.4342,1.4342,0,0,1-1.4342-1.4342V148.401a1.4342,1.4342,0,0,1,1.4342-1.4342h11.1115a1.4342,1.4342,0,0,1,1.4342,1.4342Zm.0909-12.04a1.4342,1.4342,0,0,1-1.4341,1.4342H322.895a1.4342,1.4342,0,0,1-1.4342-1.4342v-2.5959a1.4342,1.4342,0,0,1,1.4342-1.4342h11.2726a1.4342,1.4342,0,0,1,1.4341,1.4342ZM341.85,94.133a4.5947,4.5947,0,0,1-.6788-2.1489c-2.9436-13.7072-5.9453-27.4029-8.7106-41.146-.3191-1.5859,1.13-3.4695,1.0134-5.164-.5649-8.2382-4.3929-12.4233-12.6021-13.8275-15.5472-2.6595-31.1176-5.1827-46.6714-7.804-7.1838-1.2106-14.3694-2.4249-21.5188-3.819a12.7962,12.7962,0,0,0-10.6874,2.8512,34.2013,34.2013,0,0,1-19.5586,7.005c-4.2966.2645-8.547,1.2811-12.9778,1.9847,1.0763,21.5653,2.14,42.8717,3.2263,64.6461,14.6733-2.3684,28.957-4.598,43.203-7.0476,2.4-.4127,3.5041.146,4.5574,2.2522,3.7456,7.49,7.7577,14.8468,11.4882,22.3439a4.54,4.54,0,0,0,4.3942,2.9678c18.4019.8543,36.7974,1.8473,55.1983,2.7254.8145.0388,2.1837-.42,2.4106-.9952,1.4957-3.7914,4.8073-4.6666,8.1868-5.637.9289-.2667,2.49-1.235,2.4177-1.6476C343.526,105.8525,346.91,99.3364,341.85,94.133ZM246.6979,72.4364c-.7326.0648-1.6254-.6669-2.292-1.2154a5.8416,5.8416,0,0,1-1.0224-1.6511c-4.0174-6.9342-4.0137-6.9166-12-5.4254-3.0907.5771-6.2,1.0536-9.6939,1.642.2572-5.8336.4345-11.4711.85-17.0908.048-.6487,1.3563-1.5933,2.193-1.7349q13.98-2.3658,28.0087-4.4316a2.74,2.74,0,0,1,2.2937,1.296c1.8848,8.9012,3.6043,17.8375,5.4185,27.0492C255.7217,71.4352,251.2187,72.0367,246.6979,72.4364ZM327.12,106.7382c-15.86-1.2484-31.733-2.34-47.5827-3.7028-1.4473-.1244-2.761-1.8026-4.1367-2.7592l.5768-1.1369,53.7271,4.8223C329.7481,105.881,329.3189,106.9113,327.12,106.7382Zm.0221-6.4c-15.7544-1.2754-31.5219-2.3961-47.2659-3.785-1.539-.1357-2.9479-1.7472-4.4171-2.6737q.3455-.5928.6906-1.1856l53.5042,4.7895C329.9043,99.4715,329.5206,100.5305,327.1422,100.338Zm.0676-6.42c-15.8595-1.2984-31.73-2.4647-47.5778-3.8938-1.4324-.1292-2.7246-1.8132-4.0819-2.7752l.663-1.0212,53.4266,4.789C330.1061,93.2024,329.5118,94.106,327.21,93.9176Zm.9372-14.2059c-10.1042-1.22-19.4934-2.3452-28.88-3.4911-8.3077-1.0141-16.602-2.1509-24.924-3.0277-3.0919-.3258-4.7193-1.6175-5.1919-4.7223-1.2744-8.3735-2.6751-16.7279-4.0435-25.087-.4362-2.6644,1.3026-2.6228,3.0148-2.3516,7.1846,1.1383,14.35,2.3951,21.536,3.5264,9.4407,1.4862,18.8856,2.9517,28.3448,4.3143,4.88.7029,5.4625.9865,6.7952,5.9549,1.9108,7.1238,3.6748,14.2868,5.5077,21.4313C330.947,78.7573,330.3433,80.1777,328.147,79.7117ZM49.99,112.2277c45.7012-4.98,108.4113-11.8665,149.0992-16.3926a2.8942,2.8942,0,0,0,2.5736-2.88l0-18.6812a2.9042,2.9042,0,0,0-3.5512-2.8279L48.8675,105.5127C44.6843,106.4676,45.7248,112.6926,49.99,112.2277Zm21.184-30.3864C104.4675,76.532,138.353,71.0757,151.0657,69.02c16.3237-2.64,32.6554-5.2318,48.9625-7.97.913-.1533,2.3522-1.4645,2.334-2.207-.14-5.7119-.4331-11.42-.7334-17.252a4.1432,4.1432,0,0,0-5.2345-3.7838L69.2186,72.8045C63.5862,74.3545,65.4056,82.7614,71.1744,81.8413Z" transform="translate(-24.2376 -19.9826)"/><path class="cls-2" d="M669.9793,137.1889h2.7243v25.839h-2.7243Z" transform="translate(-24.2376 -19.9826)"/><path class="cls-2" d="M694.6485,163.4509a9.3434,9.3434,0,0,1-3.7884-.7564,9.6414,9.6414,0,0,1-3.0063-2.0576,9.2013,9.2013,0,0,1-1.9839-3.0063,9.5441,9.5441,0,0,1-.7083-3.6666v-.0705a9.6564,9.6564,0,0,1,.7083-3.6794,9.3438,9.3438,0,0,1,5.01-5.1152,9.6905,9.6905,0,0,1,10.6727,2.0512,9.288,9.288,0,0,1,1.9807,3.0128,9.51,9.51,0,0,1,.7084,3.66v.07a9.5185,9.5185,0,0,1-.7244,3.6858,9.7707,9.7707,0,0,1-2,3.0448,9.456,9.456,0,0,1-3.0448,2.07A9.59,9.59,0,0,1,694.6485,163.4509Zm.0705-2.4422a6.4813,6.4813,0,0,0,2.7275-.5641,6.5692,6.5692,0,0,0,2.1217-1.5256,6.9422,6.9422,0,0,0,1.3814-2.2243,7.4971,7.4971,0,0,0,.4968-2.7307v-.0705a7.4335,7.4335,0,0,0-.516-2.7755,7.0712,7.0712,0,0,0-1.4327-2.2692,6.8828,6.8828,0,0,0-2.16-1.5384,6.3678,6.3678,0,0,0-2.689-.5641,6.4563,6.4563,0,0,0-2.7243.5641,6.3356,6.3356,0,0,0-2.1057,1.5256,7.0222,7.0222,0,0,0-1.3653,2.2435,7.6119,7.6119,0,0,0-.4936,2.7435v.07a7.4638,7.4638,0,0,0,.5128,2.782,6.9793,6.9793,0,0,0,1.4166,2.2435,6.7218,6.7218,0,0,0,2.141,1.5256A6.3782,6.3782,0,0,0,694.719,161.0087Z" transform="translate(-24.2376 -19.9826)"/><path class="cls-2" d="M724.5258,168.7649a15.0334,15.0334,0,0,1-4.3909-.641,13.93,13.93,0,0,1-3.9262-1.91l1.2372-2.1218a13.1924,13.1924,0,0,0,3.3268,1.7308,11.1945,11.1945,0,0,0,3.7179.6025,6.9013,6.9013,0,0,0,4.8492-1.6474,6.2569,6.2569,0,0,0,1.8044-4.8652v-2.16a11.4269,11.4269,0,0,1-2.939,2.7243,7.5838,7.5838,0,0,1-4.2467,1.1345,8.66,8.66,0,0,1-3.2018-.6025,8.51,8.51,0,0,1-2.7435-1.7179,8.2967,8.2967,0,0,1-2.657-6.2434v-.0705a8.59,8.59,0,0,1,.7275-3.6089,8.34,8.34,0,0,1,1.9295-2.7114,8.5882,8.5882,0,0,1,2.76-1.7179,8.98,8.98,0,0,1,5.5415-.3013,8.654,8.654,0,0,1,1.9455.8012,7.9861,7.9861,0,0,1,1.5736,1.1667,11.4579,11.4579,0,0,1,1.2756,1.4166v-3.2948h2.7243v15.115a10.68,10.68,0,0,1-.5993,3.737,7.6312,7.6312,0,0,1-1.7371,2.7435,7.7512,7.7512,0,0,1-3.0064,1.84A12.3733,12.3733,0,0,1,724.5258,168.7649Zm-.0352-9.5574a7.2283,7.2283,0,0,0,2.5127-.4423,6.7275,6.7275,0,0,0,2.141-1.2756,6.4631,6.4631,0,0,0,1.5031-1.9679,5.5075,5.5075,0,0,0,.5673-2.5128v-.0705a5.6047,5.6047,0,0,0-.5673-2.5448,6.2327,6.2327,0,0,0-1.5031-1.9486,6.7951,6.7951,0,0,0-2.141-1.2564,7.226,7.226,0,0,0-2.5127-.4423,6.7919,6.7919,0,0,0-2.4615.4423,6.2515,6.2515,0,0,0-2.016,1.2371,5.6356,5.6356,0,0,0-1.3621,1.9295,6.2692,6.2692,0,0,0-.4968,2.5512v.0705a6.1553,6.1553,0,0,0,.5128,2.532,6.0642,6.0642,0,0,0,1.3814,1.9614,6.3448,6.3448,0,0,0,2.0159,1.2756A6.4561,6.4561,0,0,0,724.4906,159.2075Z" transform="translate(-24.2376 -19.9826)"/><path class="cls-2" d="M747.25,137.7209h3.1153v3.0063H747.25Zm.1763,7.0062H750.15v18.3008h-2.7242Z" transform="translate(-24.2376 -19.9826)"/><path class="cls-2" d="M769.7937,163.38a11.8409,11.8409,0,0,1-4-.7243,12.5463,12.5463,0,0,1-3.5736-1.9615l1.3814-1.9487a11.9084,11.9084,0,0,0,3.096,1.7308,9.1363,9.1363,0,0,0,3.2371.6025,4.498,4.498,0,0,0,2.7275-.7756,2.4987,2.4987,0,0,0,1.0609-2.1282v-.0705a1.8924,1.8924,0,0,0-.3718-1.1666,3.3891,3.3891,0,0,0-1.01-.8654,7.69,7.69,0,0,0-1.4679-.6538c-.5545-.1923-1.1282-.3654-1.7179-.532q-1.0576-.3174-2.141-.6923a8.5454,8.5454,0,0,1-1.9454-.9359,4.7746,4.7746,0,0,1-1.4166-1.4166,3.8379,3.8379,0,0,1-.5481-2.1217v-.07a4.9167,4.9167,0,0,1,.4615-2.141,4.7588,4.7588,0,0,1,1.2916-1.6666,5.9314,5.9314,0,0,1,1.9808-1.0641,8.2021,8.2021,0,0,1,2.4967-.3718,11.3576,11.3576,0,0,1,3.4326.5513,13.0375,13.0375,0,0,1,3.15,1.4679l-1.24,2.0512a12.723,12.723,0,0,0-2.67-1.2884,8.42,8.42,0,0,0-2.7435-.4808,4.0476,4.0476,0,0,0-2.5865.7628,2.3408,2.3408,0,0,0-.9551,1.8974v.0705a1.7217,1.7217,0,0,0,.391,1.1154,3.3742,3.3742,0,0,0,1.0449.8269,9.5878,9.5878,0,0,0,1.5031.641c.5673.1859,1.157.3782,1.7692.5641.7083.2115,1.41.4487,2.1057.7051a8.5625,8.5625,0,0,1,1.8942.9935,4.8743,4.8743,0,0,1,1.3621,1.4487,3.9758,3.9758,0,0,1,.5128,2.09v.0705a5.0276,5.0276,0,0,1-.5128,2.32,5.3252,5.3252,0,0,1-1.3781,1.7179,5.98,5.98,0,0,1-2.0545,1.0769A8.4826,8.4826,0,0,1,769.7937,163.38Z" transform="translate(-24.2376 -19.9826)"/><path class="cls-2" d="M794.7481,163.3484a7.2925,7.2925,0,0,1-2.0512-.2821,4.3168,4.3168,0,0,1-1.6474-.9038,4.19,4.19,0,0,1-1.08-1.6153,6.4744,6.4744,0,0,1-.3878-2.3718V147.1373h-2.548v-2.41h2.548v-5.519h2.7243v5.519h5.8075v2.41h-5.8075v10.66a2.8663,2.8663,0,0,0,.8493,2.3654,3.4906,3.4906,0,0,0,2.2307.673,6.251,6.251,0,0,0,1.3269-.1346,6.129,6.129,0,0,0,1.3269-.4679v2.3332a5.9,5.9,0,0,1-1.5032.5834A7.3076,7.3076,0,0,1,794.7481,163.3484Z" transform="translate(-24.2376 -19.9826)"/><path class="cls-2" d="M810.2508,137.7209h3.1153v3.0063h-3.1153Zm.1763,7.0062h2.7243v18.3008h-2.7243Z" transform="translate(-24.2376 -19.9826)"/><path class="cls-2" d="M834.9937,163.4509a9.1167,9.1167,0,0,1-3.7339-.7564,9.4615,9.4615,0,0,1-2.9742-2.0576,9.3043,9.3043,0,0,1-1.9647-3.0255,9.564,9.564,0,0,1-.7083-3.6474v-.0705a9.6843,9.6843,0,0,1,2.673-6.7241,9.2911,9.2911,0,0,1,2.9742-2.0705,9.12,9.12,0,0,1,3.7339-.7628,10.377,10.377,0,0,1,2.3717.25,8.88,8.88,0,0,1,1.9455.6923,8.7127,8.7127,0,0,1,1.6281,1.0448,14.1724,14.1724,0,0,1,1.3814,1.2692l-1.8044,1.9166a12.8829,12.8829,0,0,0-2.391-1.9486,5.8005,5.8005,0,0,0-3.1666-.8141,6.154,6.154,0,0,0-2.5832.5448,6.5925,6.5925,0,0,0-2.09,1.5064,6.9239,6.9239,0,0,0-1.3814,2.25,7.6878,7.6878,0,0,0-.4935,2.7756v.07a7.4638,7.4638,0,0,0,.5128,2.782,7.209,7.209,0,0,0,1.4166,2.2627,6.3713,6.3713,0,0,0,4.7947,2.0705,6.2122,6.2122,0,0,0,3.1345-.7756,10.457,10.457,0,0,0,2.4583-1.9487l1.7339,1.6282a12.194,12.194,0,0,1-3.1313,2.5512A8.7133,8.7133,0,0,1,834.9937,163.4509Z" transform="translate(-24.2376 -19.9826)"/><path class="cls-2" d="M860.2654,163.38a11.8409,11.8409,0,0,1-4-.7243,12.5463,12.5463,0,0,1-3.5736-1.9615l1.3814-1.9487a11.9084,11.9084,0,0,0,3.096,1.7308,9.1363,9.1363,0,0,0,3.2371.6025,4.4982,4.4982,0,0,0,2.7275-.7756,2.4986,2.4986,0,0,0,1.0608-2.1282v-.0705a1.8923,1.8923,0,0,0-.3717-1.1666,3.39,3.39,0,0,0-1.01-.8654,7.693,7.693,0,0,0-1.4679-.6538c-.5545-.1923-1.1282-.3654-1.7179-.532q-1.0576-.3174-2.141-.6923a8.5454,8.5454,0,0,1-1.9454-.9359,4.7749,4.7749,0,0,1-1.4167-1.4166,3.8387,3.8387,0,0,1-.548-2.1217v-.07a4.9167,4.9167,0,0,1,.4615-2.141,4.7588,4.7588,0,0,1,1.2916-1.6666,5.9309,5.9309,0,0,1,1.9807-1.0641,8.2023,8.2023,0,0,1,2.4968-.3718,11.3575,11.3575,0,0,1,3.4325.5513,13.0365,13.0365,0,0,1,3.1506,1.4679l-1.24,2.0512a12.72,12.72,0,0,0-2.67-1.2884,8.4206,8.4206,0,0,0-2.7436-.4808,4.0473,4.0473,0,0,0-2.5864.7628,2.3408,2.3408,0,0,0-.9551,1.8974v.0705a1.7217,1.7217,0,0,0,.391,1.1154,3.3749,3.3749,0,0,0,1.0448.8269,9.5932,9.5932,0,0,0,1.5032.641c.5673.1859,1.157.3782,1.7692.5641.7083.2115,1.41.4487,2.1057.7051a8.5625,8.5625,0,0,1,1.8942.9935,4.8743,4.8743,0,0,1,1.3621,1.4487,3.9768,3.9768,0,0,1,.5128,2.09v.0705a5.0289,5.0289,0,0,1-.5128,2.32,5.3255,5.3255,0,0,1-1.3782,1.7179,5.9784,5.9784,0,0,1-2.0544,1.0769A8.4826,8.4826,0,0,1,860.2654,163.38Z" transform="translate(-24.2376 -19.9826)"/><path d="M550.34,123.1113v-8.7659a30.4908,30.4908,0,0,1-9.3037,7.2855,29.3634,29.3634,0,0,1-13.75,2.9608,32.7457,32.7457,0,0,1-9.7085-1.4139,23.8237,23.8237,0,0,1-8.0229-4.1806,20.316,20.316,0,0,1-7.6182-16.3786v-.2716a23.0949,23.0949,0,0,1,2.16-10.3129,20.1048,20.1048,0,0,1,5.9992-7.28,26.15,26.15,0,0,1,9.1679-4.3136A44.5437,44.5437,0,0,1,530.79,79.0211a63.6959,63.6959,0,0,1,10.9893.8095,66.44,66.44,0,0,1,8.6966,2.1568V80.64q0-7.41-4.516-11.3275-4.52-3.909-13.0131-3.9089a43.4038,43.4038,0,0,0-10.7841,1.2142,70.87,70.87,0,0,0-9.5755,3.238l-4.4467-13.08a74.7887,74.7887,0,0,1,12.1343-4.3137,59.8539,59.8539,0,0,1,14.9647-1.619q15.9059,0,23.5948,7.89,7.6847,7.8843,7.6847,22.1782v42.2Zm.4048-29.7964a41.5631,41.5631,0,0,0-7.3493-2.0238,47.9724,47.9724,0,0,0-8.9655-.8095q-7.6848,0-11.9984,2.9664a9.3169,9.3169,0,0,0-4.3137,8.09v.2716a8.8527,8.8527,0,0,0,3.9755,7.8179,16.9844,16.9844,0,0,0,9.775,2.7,24.8153,24.8153,0,0,0,7.4824-1.0811,19.2842,19.2842,0,0,0,6.0019-3.0329,13.8238,13.8238,0,0,0,3.9755-4.7184,13.2358,13.2358,0,0,0,1.4166-6.1378Z" transform="translate(-24.2376 -19.9826)"/><path d="M614.2462,144.9512a60.6449,60.6449,0,0,1-31.8174-8.4055l6.0657-12.22a54.758,54.758,0,0,0,11.8654,5.528,43.287,43.287,0,0,0,13.4815,2.0237q10.9242,0,16.72-5.5556t5.7968-16.3952v-5.5557a38.2806,38.2806,0,0,1-10.3821,9.4368Q620.0415,117.45,611.28,117.45a32.661,32.661,0,0,1-12.1342-2.2954,32.1031,32.1031,0,0,1-10.3129-6.5371,31.174,31.174,0,0,1-7.2134-10.4514,34.7845,34.7845,0,0,1-2.6974-14.0222v-.2661a35.2819,35.2819,0,0,1,2.6974-14.0887,30.9661,30.9661,0,0,1,7.2134-10.518,32.0126,32.0126,0,0,1,10.3822-6.5426,32.9339,32.9339,0,0,1,12.0649-2.29q9.0321,0,14.8982,3.5707a40.4562,40.4562,0,0,1,10.0467,8.5663V51.9249h16.3121v56.6264q0,17.798-9.0321,26.83a29.87,29.87,0,0,1-12.2007,7.2134A56.0032,56.0032,0,0,1,614.2462,144.9512Zm1.35-41.2569a23.048,23.048,0,0,0,8.02-1.4139,19.61,19.61,0,0,0,6.6756-4.0475,20.0209,20.0209,0,0,0,4.516-6.1988,18.2625,18.2625,0,0,0,1.6856-7.89v-.2661a18.5972,18.5972,0,0,0-1.6856-8.023,20.0456,20.0456,0,0,0-4.516-6.2043,19.6854,19.6854,0,0,0-6.6756-4.042,22.9262,22.9262,0,0,0-8.02-1.4194,21.6863,21.6863,0,0,0-7.9565,1.4194,19.9355,19.9355,0,0,0-6.4039,3.9754,18.0039,18.0039,0,0,0-4.3137,6.1379A19.9143,19.9143,0,0,0,595.37,83.74v.2717a19.23,19.23,0,0,0,1.619,8.0229,20.1311,20.1311,0,0,0,4.3136,6.1988,18.4179,18.4179,0,0,0,6.4068,4.0475A21.9285,21.9285,0,0,0,615.5963,103.6943Z" transform="translate(-24.2376 -19.9826)"/><path d="M669.5253,51.9249h16.4506V63.0916a39.7179,39.7179,0,0,1,3.8313-4.8293,24.8947,24.8947,0,0,1,10.8895-6.8032,25.3127,25.3127,0,0,1,7.46-1.02q12.101,0,18.6907,7.4131,6.5827,7.4186,6.5869,19.9548v45.3045H716.9866V82.7581q0-8.3418-3.945-12.8467-3.9422-4.5078-11.1611-4.5077a15.1543,15.1543,0,0,0-11.4939,4.6407q-4.412,4.6409-4.4107,12.98v40.0871H669.5253Z" transform="translate(-24.2376 -19.9826)"/><path d="M782.3762,124.73a37.8929,37.8929,0,0,1-14.36-2.7,34.4259,34.4259,0,0,1-19.3477-19.2118,38.7521,38.7521,0,0,1-2.8305-15.0313v-.2717a40.2851,40.2851,0,0,1,2.5616-14.4269,36.1325,36.1325,0,0,1,7.2135-11.7932,33.9646,33.9646,0,0,1,10.9892-7.9565,33.2548,33.2548,0,0,1,14.0194-2.9,33.894,33.894,0,0,1,14.901,3.0994A30.7128,30.7128,0,0,1,806.1734,61.9a36.3854,36.3854,0,0,1,6.4039,12.2036A49.0843,49.0843,0,0,1,814.7341,88.73c0,.7208-.0221,1.4637-.0665,2.2233q-.0707,1.1478-.2024,2.362H762.1524q1.3433,8.766,6.9418,13.4123a20.4789,20.4789,0,0,0,13.5509,4.6518,23.81,23.81,0,0,0,10.5152-2.1568,34.0944,34.0944,0,0,0,8.7659-6.3374l9.5727,8.4942a39.3149,39.3149,0,0,1-12.2035,9.7085A36.5633,36.5633,0,0,1,782.3762,124.73Zm16.179-42.1995a28.0676,28.0676,0,0,0-1.7521-7.3521A18.9009,18.9009,0,0,0,793.16,69.246a17.2538,17.2538,0,0,0-5.4586-3.9754,16.85,16.85,0,0,0-7.2134-1.4859A16.4512,16.4512,0,0,0,768.0158,68.98a23.432,23.432,0,0,0-5.9992,13.5509Z" transform="translate(-24.2376 -19.9826)"/><path d="M851.8105,124.3255a30.12,30.12,0,0,1-8.2586-1.0811,16.8426,16.8426,0,0,1-6.5925-3.5042,15.5544,15.5544,0,0,1-4.28-6.4039,28.2837,28.2837,0,0,1-1.4971-9.9081V65.947H822.15V51.9249h9.032v-19.55H847.63v19.55H866.778V65.947H847.63v34.92q0,4.7155,2.2927,6.8087a9.27,9.27,0,0,0,6.4732,2.09,22.3206,22.3206,0,0,0,10.1105-2.4285v13.3457a28.4294,28.4294,0,0,1-6.6063,2.7A31.3674,31.3674,0,0,1,851.8105,124.3255Z" transform="translate(-24.2376 -19.9826)"/><path d="M471.962,103.3175a11.3911,11.3911,0,0,1,17.0328,0V28.7317a7.89,7.89,0,0,0-.1573-.7792,8.4819,8.4819,0,0,0-3.0438-5.7193c-.2091-.1718-.3291-.4108-.5578-.565-.2266-.1521-.49-.1723-.7254-.3a8.859,8.859,0,0,0-3.2431-.9934,2.0394,2.0394,0,0,0-1.5832.001,8.468,8.468,0,0,0-5.7053,3.0423c-.1713.2085-.41.3281-.564.5567l-32.0171,47.55-32.0141-47.55c-.1542-.2286-.3927-.3482-.5645-.5572a8.4826,8.4826,0,0,0-5.7053-3.0418,2.04,2.04,0,0,0-1.5833-.001,8.8215,8.8215,0,0,0-3.2425.9934c-.2349.1278-.4988.148-.7254.3-.2287.1542-.3482.3927-.5572.5645a8.4747,8.4747,0,0,0-3.0449,5.72,7.89,7.89,0,0,0-.1573.7792V114.49a8.5164,8.5164,0,1,0,17.0328,0V56.63l23.5007,34.9053a8.38,8.38,0,0,0,2.0831,2.0774c.0874.0636.13.1624.2209.2235.1061.0714.2271.0931.3353.1588a8.4394,8.4394,0,0,0,1.5459.7326c.206.0746.4021.1723.6111.23a8.5358,8.5358,0,0,0,2.2755.3368c.0942,0,.1868-.0383.281-.0414a8.5274,8.5274,0,0,0,1.93-.2835c.2623-.0709.508-.19.7652-.2877a8.4251,8.4251,0,0,0,1.3851-.6561c.1252-.075.2654-.1014.388-.1836.105-.0709.1547-.1848.2556-.2593a8.3822,8.3822,0,0,0,2.0479-2.053l.046-.0688c.013-.0192.0259-.0367.0383-.0564L471.962,56.6278Z" transform="translate(-24.2376 -19.9826)"/><circle class="cls-1" cx="456.2409" cy="94.5069" r="8.5164"/></svg>