<svg id="Capa_1" data-name="Capa 1" xmlns="http://www.w3.org/2000/svg" width="295" height="53.8714" viewBox="0 0 295 53.8714"><defs><style>.cls-1{fill:#fff;}</style></defs><path class="cls-1" d="M111.5913,35.5048a2.2568,2.2568,0,0,0-2.1958,1.3361,1.5093,1.5093,0,0,1-1.1664.5425c-1.8-.0239-3.6-.1376-5.3989-.2358-5.0594-.2761-10.1177-.5751-15.1784-.8241a1.24,1.24,0,0,1-1.2124-.9047c-1.0675-2.3936-2.2107-4.7538-3.2573-7.1563-.3028-.6953-.614-.8022-1.3469-.6695-8.2165,1.488-16.4465,2.901-24.664,4.3835-7.3794,1.3313-38.7444,7.0918-54.2656,9.9428a.4936.4936,0,0,0,.1234.9779c14.5976-1.063,43.9439-3.2578,61.3569-4.6a.49.49,0,0,1,.5131.6094c-.9556,3.7049-.8053,7.1762,1.3507,10.4863a.4933.4933,0,0,1-.365.76L53.1222,51.4143a7.3763,7.3763,0,0,0,1.7706.1438c5.9335-.0011,11.8674-.04,17.8.0187a5.0693,5.0693,0,0,0,4.3919-2.2587c2.5275-3.4245,2.5047-9.637-.0574-13.05a4.5054,4.5054,0,0,0-3.5338-2.1317c-1.8308-.0256-3.6634.0873-5.4084.1377a7.4332,7.4332,0,0,1,1.85-.7735,34.723,34.723,0,0,1,3.469-.17,4.4321,4.4321,0,0,1,4.0835,1.9382c.7676,1.131,1.4475,2.1832,2.9755,1.869a.4906.4906,0,0,1,.5783.49c-.0022.3264-.0035.6.0048.8739.0824,2.7377.1058,5.4793.2748,8.2118.1655,2.6745,1.2236,3.7013,3.94,3.7,4.2032-.002,8.4078-.1144,12.6085-.2693a1.4005,1.4005,0,0,1,1.4284.6513.497.497,0,0,1-.38.7458l-.0934.0093a.4936.4936,0,0,0,.0483.9847c1.6382.0105,3.2752.02,4.9119.0448a4.2591,4.2591,0,0,0,4.0055-2.1957,1.7045,1.7045,0,0,1,1.1293-.6211c.8994-.1128,1.81-.1342,2.6848-.17a.4926.4926,0,0,0,.47-.4938V36.0013A.4968.4968,0,0,0,111.5913,35.5048ZM71.6436,37.4381a3.7766,3.7766,0,0,1,3.0245,2.9164,7.7115,7.7115,0,0,1-.1144,5.2738c-.6,1.5554-1.3711,2.3083-2.7614,2.5a.4942.4942,0,0,1-.4311-.8307,6.1525,6.1525,0,0,0,1.5452-4.4691A6.04,6.04,0,0,0,71.2428,38.28.4917.4917,0,0,1,71.6436,37.4381Zm20.21,9.7885a.49.49,0,0,1-.52.4915c-2.2176-.1521-4.4231.4967-6.5421-.6986-.754-.4253-1.218-.8486-1.2489-1.5807a.4987.4987,0,0,1,.735-.4569c2.2235,1.1488,4.69.5845,7.1219.74a.4918.4918,0,0,1,.454.4935Zm.015-4.66a.49.49,0,0,1-.5145.492c-2.2338-.13-4.4636.5325-6.6139-.685-.73-.4132-1.1819-.8226-1.1967-1.5543a.499.499,0,0,1,.7372-.4475c2.2051,1.1582,4.6536.6871,7.1193.7852a.4937.4937,0,0,1,.4686.4952Zm17.77,3.7829a.4936.4936,0,0,1-.4936.4937h-3.8246a.4936.4936,0,0,1-.4936-.4937v-.8582a.4936.4936,0,0,1,.4936-.4937h3.8246a.4936.4936,0,0,1,.4936.4937Zm.0313-4.144a.4937.4937,0,0,1-.4936.4937h-3.88a.4937.4937,0,0,1-.4936-.4937v-.8935a.4936.4936,0,0,1,.4936-.4936h3.88a.4936.4936,0,0,1,.4936.4936Zm2.1505-15.3931a1.5823,1.5823,0,0,1-.2336-.74c-1.0132-4.718-2.0464-9.432-2.9982-14.1624-.11-.5458.3888-1.1942.3489-1.7774-.1945-2.8356-1.5121-4.2761-4.3377-4.7594C99.2493,4.4586,93.89,3.59,88.5364,2.6879c-2.4727-.4167-4.9459-.8347-7.4067-1.3145a4.4041,4.4041,0,0,0-3.6786.9814,11.772,11.772,0,0,1-6.732,2.4111c-1.4789.091-2.9419.4409-4.4669.6831.37,7.4227.7364,14.7563,1.11,22.251,5.0505-.8152,9.967-1.5826,14.87-2.4258a1.2227,1.2227,0,0,1,1.5686.7752c1.2893,2.578,2.67,5.11,3.9542,7.6908a1.5627,1.5627,0,0,0,1.5125,1.0215c6.3339.294,12.6656.6358,18.9991.938.28.0134.7516-.1445.83-.3425.5148-1.305,1.6547-1.6062,2.8179-1.94.32-.0918.8569-.4251.8322-.5671C112.3982,30.8466,113.563,28.6038,111.8211,26.8128ZM79.07,19.3449c-.2522.0223-.5594-.23-.7889-.4183a2.011,2.011,0,0,1-.3519-.5684c-1.3828-2.3867-1.3815-2.3806-4.13-1.8673-1.0638.1986-2.1342.3626-3.3366.5651.0885-2.0079.15-3.9483.2926-5.8826.0166-.2233.4669-.5484.7549-.5971Q76.3216,9.762,81.15,9.0509a.9434.9434,0,0,1,.7895.4461c.6487,3.0638,1.2406,6.14,1.865,9.31C82.1762,19,80.6262,19.2073,79.07,19.3449Zm27.6811,11.8066c-5.459-.43-10.9224-.8054-16.3779-1.2745-.4981-.0428-.95-.62-1.4238-.95l.1985-.3913,18.4928,1.66C107.6558,30.8564,107.5081,31.211,106.7513,31.1515Zm.0076-2.203c-5.4226-.4389-10.85-.8247-16.2688-1.3027-.53-.0468-1.0146-.6014-1.52-.92l.2377-.4081,18.416,1.6485C107.71,28.65,107.5775,29.0148,106.7589,28.9485Zm.0233-2.21c-5.4589-.4469-10.9216-.8484-16.3762-1.34-.493-.0444-.9378-.6241-1.405-.9552l.2282-.3515L107.6185,25.74C107.7791,26.4925,107.5745,26.8035,106.7822,26.7387Zm.3225-4.89c-3.4778-.42-6.7095-.8072-9.94-1.2016-2.8595-.3491-5.7144-.74-8.5788-1.0421a1.7265,1.7265,0,0,1-1.787-1.6254c-.4386-2.8822-.9208-5.7577-1.3918-8.6349-.15-.9171.4484-.9028,1.0377-.8094,2.4729.3918,4.9394.8244,7.4126,1.2138,3.2495.5115,6.5,1.0159,9.7562,1.4849,1.68.242,1.88.34,2.3389,2.05.6577,2.452,1.2649,4.9175,1.8958,7.3766C108.0685,21.5205,107.8607,22.0094,107.1047,21.849ZM11.364,33.041c15.73-1.7143,37.3149-4.0845,51.32-5.6423a.9962.9962,0,0,0,.8858-.9914l0-6.43a1,1,0,0,0-1.2223-.9733L10.9775,30.73A1.1737,1.1737,0,0,0,11.364,33.041Zm7.2915-10.4589c11.4594-1.8275,23.1227-3.7055,27.4984-4.4131,5.6185-.9086,11.24-1.8008,16.8527-2.7433.3143-.0528.81-.5041.8034-.76-.0482-1.966-.1491-3.9307-.2525-5.938a1.426,1.426,0,0,0-1.8017-1.3024L17.9823,19.4716A1.5937,1.5937,0,0,0,18.6555,22.5821Z"/><path class="cls-1" d="M224.7625,41.6325H225.7v8.8937h-.9376Z"/><path class="cls-1" d="M233.2535,50.6718a3.2157,3.2157,0,0,1-1.3039-.26,3.3187,3.3187,0,0,1-1.0348-.7082,3.17,3.17,0,0,1-.6829-1.0348,3.2857,3.2857,0,0,1-.2438-1.262v-.0243a3.3241,3.3241,0,0,1,.2438-1.2664,3.2166,3.2166,0,0,1,1.7243-1.7607,3.3356,3.3356,0,0,1,3.6735.706,3.1979,3.1979,0,0,1,.6818,1.037,3.275,3.275,0,0,1,.2438,1.26v.0243a3.2775,3.2775,0,0,1-.2493,1.2686,3.3627,3.3627,0,0,1-.6884,1.048,3.2553,3.2553,0,0,1-1.048.7127A3.3009,3.3009,0,0,1,233.2535,50.6718Zm.0243-.8406a2.2319,2.2319,0,0,0,.9388-.1941,2.2624,2.2624,0,0,0,.73-.5251,2.3913,2.3913,0,0,0,.4754-.7656,2.5793,2.5793,0,0,0,.171-.94v-.0243a2.5587,2.5587,0,0,0-.1776-.9553,2.4337,2.4337,0,0,0-.4931-.7811,2.37,2.37,0,0,0-.7435-.5295,2.1915,2.1915,0,0,0-.9256-.1942,2.2218,2.2218,0,0,0-.9377.1942,2.1821,2.1821,0,0,0-.7248.5251,2.4182,2.4182,0,0,0-.47.7722,2.6214,2.6214,0,0,0-.17.9443v.0243a2.5705,2.5705,0,0,0,.1765.9576,2.4043,2.4043,0,0,0,.4876.7722,2.3144,2.3144,0,0,0,.7369.5251A2.1965,2.1965,0,0,0,233.2778,49.8312Z"/><path class="cls-1" d="M243.5372,52.5009a5.17,5.17,0,0,1-1.5113-.2207,4.7936,4.7936,0,0,1-1.3514-.6574l.4258-.73a4.5431,4.5431,0,0,0,1.1451.5957,3.8528,3.8528,0,0,0,1.28.2074,2.3749,2.3749,0,0,0,1.669-.5671,2.1533,2.1533,0,0,0,.6211-1.6746V48.71a3.93,3.93,0,0,1-1.0116.9377,2.61,2.61,0,0,1-1.4617.3905,2.98,2.98,0,0,1-1.102-.2074,2.9287,2.9287,0,0,1-.9443-.5913,2.8561,2.8561,0,0,1-.9146-2.1489v-.0243a2.9564,2.9564,0,0,1,.25-1.2422,2.87,2.87,0,0,1,.6641-.9332,2.9557,2.9557,0,0,1,.95-.5913,3.0911,3.0911,0,0,1,1.9074-.1037,2.9756,2.9756,0,0,1,.67.2758,2.7454,2.7454,0,0,1,.5416.4015,3.9521,3.9521,0,0,1,.4391.4876v-1.134h.9377V49.43a3.676,3.676,0,0,1-.2063,1.2863,2.6275,2.6275,0,0,1-.5979.9443,2.668,2.668,0,0,1-1.0348.6332A4.26,4.26,0,0,1,243.5372,52.5009Zm-.0121-3.29a2.4866,2.4866,0,0,0,.8648-.1522,2.317,2.317,0,0,0,.737-.439,2.2232,2.2232,0,0,0,.5173-.6774,1.8953,1.8953,0,0,0,.1953-.8649v-.0242a1.9291,1.9291,0,0,0-.1953-.876,2.1453,2.1453,0,0,0-.5173-.6707,2.3409,2.3409,0,0,0-.737-.4324,2.4867,2.4867,0,0,0-.8648-.1523,2.3382,2.3382,0,0,0-.8473.1523,2.1528,2.1528,0,0,0-.6939.4258,1.94,1.94,0,0,0-.4688.6641,2.1585,2.1585,0,0,0-.171.8781v.0243a2.119,2.119,0,0,0,.1765.8715,2.0873,2.0873,0,0,0,.4755.6751,2.1825,2.1825,0,0,0,.6939.4391A2.2218,2.2218,0,0,0,243.5251,49.2112Z"/><path class="cls-1" d="M251.3586,41.8156h1.0723V42.85h-1.0723Zm.0607,2.4116h.9377v6.299h-.9377Z"/><path class="cls-1" d="M259.1183,50.6476a4.0776,4.0776,0,0,1-1.3768-.2493,4.3191,4.3191,0,0,1-1.23-.6752l.4755-.6707a4.1,4.1,0,0,0,1.0656.5957,3.1444,3.1444,0,0,0,1.1142.2074,1.5483,1.5483,0,0,0,.9388-.267.86.86,0,0,0,.3652-.7325v-.0242a.6517.6517,0,0,0-.128-.4016,1.167,1.167,0,0,0-.3475-.2978,2.6432,2.6432,0,0,0-.5053-.2251c-.1908-.0662-.3883-.1258-.5913-.1831q-.3639-.1092-.7369-.2383a2.9389,2.9389,0,0,1-.67-.3221,1.6449,1.6449,0,0,1-.4876-.4876,1.3218,1.3218,0,0,1-.1886-.73v-.0243a1.6922,1.6922,0,0,1,.1588-.7369,1.638,1.638,0,0,1,.4446-.5736,2.0423,2.0423,0,0,1,.6818-.3663,2.8238,2.8238,0,0,1,.8593-.128,3.9084,3.9084,0,0,1,1.1815.19,4.4836,4.4836,0,0,1,1.0844.5052l-.4269.7061a4.3727,4.3727,0,0,0-.9189-.4435,2.8994,2.8994,0,0,0-.9443-.1655,1.3932,1.3932,0,0,0-.89.2626.8057.8057,0,0,0-.3287.653v.0243a.5928.5928,0,0,0,.1345.3839,1.161,1.161,0,0,0,.36.2846,3.2914,3.2914,0,0,0,.5174.2207c.1952.0639.3982.13.6089.1941.2438.0728.4854.1545.7248.2427a2.9493,2.9493,0,0,1,.652.342,1.6784,1.6784,0,0,1,.4688.4986,1.3693,1.3693,0,0,1,.1765.7193v.0243a1.731,1.731,0,0,1-.1765.7986,1.8316,1.8316,0,0,1-.4744.5913,2.0561,2.0561,0,0,1-.7071.3707A2.9212,2.9212,0,0,1,259.1183,50.6476Z"/><path class="cls-1" d="M267.7075,50.6365a2.5131,2.5131,0,0,1-.706-.097,1.4856,1.4856,0,0,1-.567-.3111,1.4414,1.4414,0,0,1-.3718-.556,2.2279,2.2279,0,0,1-.1335-.8164V45.0567h-.877v-.8295h.877v-1.9h.9377v1.9h1.9989v.8295h-1.9989v3.6692a.9867.9867,0,0,0,.2923.8141,1.2018,1.2018,0,0,0,.7678.2317,2.1492,2.1492,0,0,0,.4567-.0464,2.11,2.11,0,0,0,.4568-.161v.8031a2.0334,2.0334,0,0,1-.5174.2007A2.5122,2.5122,0,0,1,267.7075,50.6365Z"/><path class="cls-1" d="M273.0435,41.8156h1.0723V42.85h-1.0723Zm.0607,2.4116h.9377v6.299h-.9377Z"/><path class="cls-1" d="M281.56,50.6718a3.1383,3.1383,0,0,1-1.2852-.26,3.2577,3.2577,0,0,1-1.0237-.7082,3.2037,3.2037,0,0,1-.6762-1.0414,3.2919,3.2919,0,0,1-.2438-1.2554v-.0243a3.3337,3.3337,0,0,1,.92-2.3144,3.1977,3.1977,0,0,1,1.0237-.7127,3.14,3.14,0,0,1,1.2852-.2625,3.5767,3.5767,0,0,1,.8164.086,3.0574,3.0574,0,0,1,.67.2383,2.9984,2.9984,0,0,1,.56.36,4.8766,4.8766,0,0,1,.4755.4369l-.6211.66a4.4293,4.4293,0,0,0-.823-.6707,1.996,1.996,0,0,0-1.09-.28,2.1176,2.1176,0,0,0-.8892.1876,2.27,2.27,0,0,0-.7192.5185,2.3814,2.3814,0,0,0-.4755.7744,2.6462,2.6462,0,0,0-.17.9553v.0243a2.5705,2.5705,0,0,0,.1765.9576,2.484,2.484,0,0,0,.4876.7788,2.1928,2.1928,0,0,0,1.65.7126,2.1386,2.1386,0,0,0,1.0789-.2669,3.6,3.6,0,0,0,.8461-.6708l.5968.56a4.1954,4.1954,0,0,1-1.0778.8782A3,3,0,0,1,281.56,50.6718Z"/><path class="cls-1" d="M290.2584,50.6476a4.0776,4.0776,0,0,1-1.3768-.2493,4.3191,4.3191,0,0,1-1.23-.6752l.4755-.6707a4.1,4.1,0,0,0,1.0656.5957,3.1444,3.1444,0,0,0,1.1142.2074,1.5483,1.5483,0,0,0,.9388-.267.86.86,0,0,0,.3652-.7325v-.0242a.6517.6517,0,0,0-.128-.4016,1.167,1.167,0,0,0-.3475-.2978,2.6432,2.6432,0,0,0-.5053-.2251c-.1908-.0662-.3883-.1258-.5913-.1831q-.364-.1092-.7369-.2383a2.9389,2.9389,0,0,1-.67-.3221,1.6449,1.6449,0,0,1-.4876-.4876,1.3218,1.3218,0,0,1-.1886-.73v-.0243a1.6922,1.6922,0,0,1,.1588-.7369,1.638,1.638,0,0,1,.4446-.5736,2.0413,2.0413,0,0,1,.6818-.3663,2.8238,2.8238,0,0,1,.8593-.128,3.9084,3.9084,0,0,1,1.1815.19,4.4854,4.4854,0,0,1,1.0844.5052l-.4269.7061a4.3727,4.3727,0,0,0-.9189-.4435,2.8994,2.8994,0,0,0-.9443-.1655,1.3932,1.3932,0,0,0-.89.2626.8057.8057,0,0,0-.3287.653v.0243a.5928.5928,0,0,0,.1345.3839,1.161,1.161,0,0,0,.36.2846,3.2914,3.2914,0,0,0,.5174.2207c.1952.0639.3982.13.6089.1941.2438.0728.4854.1545.7248.2427a2.9463,2.9463,0,0,1,.6519.342,1.6775,1.6775,0,0,1,.4689.4986,1.3693,1.3693,0,0,1,.1765.7193v.0243a1.731,1.731,0,0,1-.1765.7986,1.8316,1.8316,0,0,1-.4744.5913,2.0561,2.0561,0,0,1-.7071.3707A2.9212,2.9212,0,0,1,290.2584,50.6476Z"/><path class="cls-1" d="M183.5829,36.787V33.77a10.4948,10.4948,0,0,1-3.2024,2.5077,10.106,10.106,0,0,1-4.7328,1.0191,11.2693,11.2693,0,0,1-3.3417-.4867,8.2006,8.2006,0,0,1-2.7615-1.4389,6.9922,6.9922,0,0,1-2.6221-5.6375V29.64a7.9492,7.9492,0,0,1,.7433-3.55,6.92,6.92,0,0,1,2.0649-2.5058A9.0012,9.0012,0,0,1,172.8862,22.1a15.3288,15.3288,0,0,1,3.9676-.4886,21.93,21.93,0,0,1,3.7825.2786,22.8934,22.8934,0,0,1,2.9933.7424v-.4637a4.8845,4.8845,0,0,0-1.5544-3.8989,6.6516,6.6516,0,0,0-4.479-1.3455,14.941,14.941,0,0,0-3.7119.418,24.3965,24.3965,0,0,0-3.2959,1.1145l-1.5305-4.5019a25.7354,25.7354,0,0,1,4.1766-1.4848,20.6034,20.6034,0,0,1,5.1508-.5573q5.4747,0,8.1212,2.7157,2.6451,2.7138,2.6451,7.6337V36.787Zm.1393-10.2558a14.3149,14.3149,0,0,0-2.53-.6966,16.5133,16.5133,0,0,0-3.0859-.2786,7.2224,7.2224,0,0,0-4.13,1.021,3.207,3.207,0,0,0-1.4847,2.7844v.0935a3.047,3.047,0,0,0,1.3683,2.6909,5.8462,5.8462,0,0,0,3.3646.9294A8.54,8.54,0,0,0,179.8,32.703a6.6344,6.6344,0,0,0,2.0658-1.0439,4.7574,4.7574,0,0,0,1.3684-1.624,4.5554,4.5554,0,0,0,.4876-2.1126Z"/><path class="cls-1" d="M205.5793,44.3043a20.8743,20.8743,0,0,1-10.9515-2.8932l2.0878-4.2061a18.8546,18.8546,0,0,0,4.084,1.9027,14.9011,14.9011,0,0,0,4.64.6966,7.9951,7.9951,0,0,0,5.7549-1.9123,7.463,7.463,0,0,0,1.9952-5.6432V30.3366a13.1754,13.1754,0,0,1-3.5735,3.2481,9.5018,9.5018,0,0,1-5.0582,1.2539,11.2423,11.2423,0,0,1-4.1766-.79,11.05,11.05,0,0,1-3.55-2.25,10.73,10.73,0,0,1-2.4828-3.5973,11.9725,11.9725,0,0,1-.9285-4.8264v-.0916a12.1436,12.1436,0,0,1,.9285-4.8493,10.659,10.659,0,0,1,2.4828-3.62,11.02,11.02,0,0,1,3.5735-2.2519,11.3361,11.3361,0,0,1,4.1528-.7882,9.7292,9.7292,0,0,1,5.1279,1.2291,13.9221,13.9221,0,0,1,3.458,2.9485V12.2849h5.6146V31.7755q0,6.1262-3.1088,9.2349a10.2818,10.2818,0,0,1-4.1995,2.4828A19.2752,19.2752,0,0,1,205.5793,44.3043Zm.4647-14.2a7.9316,7.9316,0,0,0,2.76-.4867,6.7482,6.7482,0,0,0,2.2977-1.3931,6.8921,6.8921,0,0,0,1.5544-2.1336,6.2853,6.2853,0,0,0,.58-2.7157v-.0916a6.4005,6.4005,0,0,0-.58-2.7615,6.9,6.9,0,0,0-1.5544-2.1355,6.7738,6.7738,0,0,0-2.2977-1.3912,7.89,7.89,0,0,0-2.76-.4886,7.4629,7.4629,0,0,0-2.7386.4886,6.8609,6.8609,0,0,0-2.2042,1.3683,6.1968,6.1968,0,0,0-1.4848,2.1126,6.8547,6.8547,0,0,0-.5343,2.76v.0935a6.6188,6.6188,0,0,0,.5572,2.7615,6.93,6.93,0,0,0,1.4848,2.1336,6.3378,6.3378,0,0,0,2.2051,1.3931A7.5468,7.5468,0,0,0,206.044,30.1038Z"/><path class="cls-1" d="M224.6062,12.2849h5.6622v3.8435a13.67,13.67,0,0,1,1.3188-1.6622,8.5687,8.5687,0,0,1,3.7481-2.3416,8.7125,8.7125,0,0,1,2.5678-.3512,8.1593,8.1593,0,0,1,6.4332,2.5516,9.9738,9.9738,0,0,1,2.2672,6.8684V36.787h-5.6613V22.8976a6.51,6.51,0,0,0-1.3578-4.4218,4.8314,4.8314,0,0,0-3.8417-1.5516,5.216,5.216,0,0,0-3.9561,1.5974,6.2267,6.2267,0,0,0-1.5182,4.4676V36.787h-5.6622Z"/><path class="cls-1" d="M263.4491,37.3443a13.0437,13.0437,0,0,1-4.9428-.9294,11.8486,11.8486,0,0,1-6.6594-6.6127,13.338,13.338,0,0,1-.9742-5.1737V24.535a13.8656,13.8656,0,0,1,.8817-4.9657,12.4354,12.4354,0,0,1,2.4828-4.0592,11.6912,11.6912,0,0,1,3.7825-2.7386,11.446,11.446,0,0,1,4.8254-.9981A11.6661,11.6661,0,0,1,267.974,12.84a10.5717,10.5717,0,0,1,3.6661,2.8779,12.5252,12.5252,0,0,1,2.2042,4.2005,16.8936,16.8936,0,0,1,.7423,5.0344c0,.2481-.0076.5038-.0229.7652q-.0243.3951-.07.813H256.4882a7.146,7.146,0,0,0,2.3893,4.6165,7.0488,7.0488,0,0,0,4.6642,1.6011,8.195,8.195,0,0,0,3.6193-.7423,11.7353,11.7353,0,0,0,3.0172-2.1814l3.2949,2.9237a13.5326,13.5326,0,0,1-4.2,3.3417A12.5849,12.5849,0,0,1,263.4491,37.3443Zm5.5688-14.525a9.6615,9.6615,0,0,0-.6031-2.53,6.5037,6.5037,0,0,0-1.2538-2.042,5.94,5.94,0,0,0-1.8788-1.3684,5.8,5.8,0,0,0-2.4829-.5114,5.6625,5.6625,0,0,0-4.293,1.7882,8.0654,8.0654,0,0,0-2.0649,4.6641Z"/><path class="cls-1" d="M287.3482,37.205a10.3663,10.3663,0,0,1-2.8426-.3722,5.7954,5.7954,0,0,1-2.2691-1.2061,5.3541,5.3541,0,0,1-1.4733-2.2042,9.7366,9.7366,0,0,1-.5152-3.41V17.1113h-3.1088V12.2849h3.1088V5.5558h5.6613v6.7291H292.5v4.8264h-6.5907V29.1305a3.04,3.04,0,0,0,.7891,2.3435,3.1909,3.1909,0,0,0,2.2281.72,7.6824,7.6824,0,0,0,3.48-.8359v4.5936a9.7913,9.7913,0,0,1-2.2739.9294A10.7983,10.7983,0,0,1,287.3482,37.205Z"/><path class="cls-1" d="M156.6055,29.9741a3.9207,3.9207,0,0,1,5.8626,0V4.3019a2.7143,2.7143,0,0,0-.0541-.2682,2.8451,2.8451,0,0,0-.1179-.5838,2.6291,2.6291,0,0,0-.511-.96,2.8545,2.8545,0,0,0-.4188-.4246c-.072-.0591-.1133-.1414-.192-.1945s-.1687-.0593-.25-.1033a3.0483,3.0483,0,0,0-1.1162-.3419,2.7371,2.7371,0,0,0-.2716-.0548,2.7,2.7,0,0,0-.2734.0552A2.9141,2.9141,0,0,0,157.3,2.4729c-.059.0718-.1411.1129-.1942.1916l-11.02,16.3666L135.0662,2.6645c-.0531-.0787-.1352-.12-.1943-.1918a2.9195,2.9195,0,0,0-1.9638-1.0469,2.698,2.698,0,0,0-.2733-.0552,2.7256,2.7256,0,0,0-.2716.0548,3.0372,3.0372,0,0,0-1.1161.3419c-.0808.044-.1717.051-.25.1033s-.12.1352-.1918.1943a2.9171,2.9171,0,0,0-1.048,1.9688,2.7143,2.7143,0,0,0-.0541.2682V33.8194a2.9313,2.9313,0,1,0,5.8626,0V13.9043l8.0889,12.0143a2.8831,2.8831,0,0,0,.717.715c.03.0219.0448.056.076.077.0365.0245.0782.032.1154.0546a2.9044,2.9044,0,0,0,.5321.2522c.0709.0257.1384.0593.21.0791a2.9386,2.9386,0,0,0,.7833.1159c.0324,0,.0643-.0132.0967-.0142a2.9367,2.9367,0,0,0,.6642-.0976c.09-.0244.1749-.0656.2634-.099a2.9085,2.9085,0,0,0,.4768-.2259c.0431-.0258.0913-.0349.1335-.0632.0362-.0244.0533-.0636.088-.0892a2.8887,2.8887,0,0,0,.7049-.7066l.0158-.0237.0132-.0194,8.06-11.97Z"/><circle class="cls-1" cx="159.5368" cy="33.8195" r="2.9313"/></svg>