<svg id="Capa_1" data-name="Capa 1" xmlns="http://www.w3.org/2000/svg" width="128" height="128" viewBox="0 0 128 128"><defs><style>.cls-1{fill:#1037b6;}.cls-2{fill:#fff;}</style></defs><rect class="cls-1" y="-0.1226" width="128" height="128" rx="18.0613"/><path class="cls-2" d="M90.7717,91.7737a9.9778,9.9778,0,0,1,14.92,0V26.44a6.9334,6.9334,0,0,0-.1377-.6825,7.4308,7.4308,0,0,0-2.6663-5.01c-.1831-.15-.2883-.36-.4886-.4949-.1985-.1332-.4292-.1509-.6354-.2628a7.76,7.76,0,0,0-2.8408-.87,6.9636,6.9636,0,0,0-.6911-.14,6.8918,6.8918,0,0,0-.6957.14,7.4175,7.4175,0,0,0-4.9976,2.6649c-.15.1827-.359.2873-.494.4877L63.9988,63.9247,35.9561,22.2733c-.1351-.2-.344-.305-.4945-.4881a7.43,7.43,0,0,0-4.9976-2.6645,6.8918,6.8918,0,0,0-.6957-.14,6.9636,6.9636,0,0,0-.6911.14,7.7246,7.7246,0,0,0-2.84.87c-.2058.1119-.4369.13-.6355.2628-.2.1351-.305.344-.4881.4945a7.4228,7.4228,0,0,0-2.6671,5.01,6.9048,6.9048,0,0,0-.1378.6825v75.12a7.46,7.46,0,0,0,14.92,0V50.8775L57.8138,81.4529a7.3408,7.3408,0,0,0,1.8246,1.82c.0766.0558.1142.1423.1936.1958.0929.0626.1989.0816.2936.1392a7.3994,7.3994,0,0,0,1.3542.6417c.18.0653.3522.1509.5353.2012a7.4741,7.4741,0,0,0,1.9932.2951c.0825,0,.1636-.0336.2461-.0363a7.47,7.47,0,0,0,1.6905-.2483c.23-.0621.4451-.1668.67-.252a7.38,7.38,0,0,0,1.2133-.5747c.11-.0657.2325-.0888.34-.1609.092-.0621.1355-.1618.2239-.2271a7.34,7.34,0,0,0,1.7938-1.7983l.04-.06c.0113-.0168.0226-.0322.0335-.0494L90.7717,50.8757Z"/><circle class="cls-2" cx="98.2317" cy="101.5598" r="7.46"/></svg>